Source: The.Thin.Red.Line.1998.720p.BluRay.x264-CiNEFiLE

Subs: Arabic, Brazilian, Bulgarian, Croatian, Czech, Danish, Dutch, English, Farsi-Persian, Finnish, French, German, Greek, Indonesian, Italian, Polish, Portuguese, Romanian, Servian, Slovenian., Spanish, Swedish, Turkish and Vietnamese.

Sample and Screens included.

General
Complete name                    : The Thin Red Line-720p MP4 AAC BRRip 1998-CC.mp4
Format                           : MPEG-4
Format profile                   : Base Media
Codec ID                         : isom
File size                        : 2.59 GiB
Duration                         : 2h 50mn
Overall bit rate                 : 2 168 Kbps
Encoded date                     : UTC 2012-03-18 07:57:42

Video
ID                               : 1
Format                           : AVC
Format/Info                      : Advanced Video Codec
Format profile                   : High@L3.1
Format settings, CABAC           : Yes
Format settings, ReFrames        : 5 frames
Codec ID                         : avc1
Codec ID/Info                    : Advanced Video Coding
Duration                         : 2h 50mn
Bit rate mode                    : Variable
Bit rate                         : 1 779 Kbps
Nominal bit rate                 : 1 814 Kbps
Maximum bit rate                 : 15.9 Mbps
Width                            : 1 280 pixels
Height                           : 544 pixels
Display aspect ratio             : 2.35:1
Frame rate mode                  : Variable
Frame rate                       : 23.976 fps
Minimum frame rate               : 19.048 fps
Maximum frame rate               : 24.390 fps
Resolution                       : 24 bits
Colorimetry                      : 4:2:0
Scan type                        : Progressive
Bits/(Pixel*Frame)               : 0.107
Stream size                      : 2.12 GiB (82%)
Writing library                  : x264 core 112

Audio
ID                               : 2
Format                           : AAC
Format/Info                      : Advanced Audio Codec
Format version                   : Version 4
Format profile                   : LC
Format settings, SBR             : No
Codec ID                         : 40
Duration                         : 2h 50mn
Bit rate mode                    : Variable
Bit rate                         : 384 Kbps
Maximum bit rate                 : 703 Kbps
Channel(s)                       : 6 channels
Channel positions                : Front: L C R, Rear: L R, LFE
Sampling rate                    : 48.0 KHz
Resolution                       : 16 bits
Stream size                      : 469 MiB (18%)
